<?xml version="1.0" encoding="UTF-8"?>
<svg xmlns="http://www.w3.org/2000/svg" xmlns:xlink="http://www.w3.org/1999/xlink" version="1.1" width="1000px" height="502px" viewBox="-0.5 -0.5 1000 502" style="background-color: rgb(255, 255, 255);"><defs/><rect fill="#ffffff" width="100%" height="100%" x="0" y="0"/><g><g data-cell-id="0"><g data-cell-id="1"><g data-cell-id="rec"><g><rect x="17" y="18" width="180" height="196" rx="9" ry="9" fill="#f3f3f4" stroke="#000000" stroke-width="2.5" pointer-events="all"/></g><g><g fill="#000000" font-family="&quot;Helvetica&quot;" font-weight="bold" font-size="14px"><text x="28.5" y="202.5">Public records</text></g></g><g data-cell-id="r0"><g><rect x="29" y="32" width="156" height="40" rx="2" ry="2" fill="#f2d8da" stroke="#000000" stroke-width="2.5" pointer-events="all"/></g><g><g fill="#000000" font-family="&quot;Helvetica&quot;" text-anchor="middle" font-size="14px"><text x="106.5" y="49">Building footprints</text><text x="106.5" y="66">and tax lots</text></g></g></g><g data-cell-id="r1"><g><rect x="29" y="84" width="156" height="40" rx="2" ry="2" fill="#f2d8da" stroke="#000000" stroke-width="2.5" pointer-events="all"/></g><g><g fill="#000000" font-family="&quot;Helvetica&quot;" text-anchor="middle" font-size="14px"><text x="106.5" y="109.5">Street centrelines</text></g></g></g><g data-cell-id="r2"><g><rect x="29" y="136" width="156" height="40" rx="2" ry="2" fill="#f2d8da" stroke="#000000" stroke-width="2.5" pointer-events="all"/></g><g><g fill="#000000" font-family="&quot;Helvetica&quot;" text-anchor="middle" font-size="14px"><text x="106.5" y="153">Trees and street</text><text x="106.5" y="170">furniture</text></g></g></g></g><g data-cell-id="comp"><g><rect x="243" y="18" width="180" height="196" rx="9" ry="9" fill="#f3f3f4" stroke="#000000" stroke-width="2.5" pointer-events="all"/></g><g><g fill="#000000" font-family="&quot;Helvetica&quot;" font-weight="bold" font-size="14px"><text x="254.5" y="202.5">City compiler</text></g></g><g data-cell-id="p0"><g><rect x="255" y="32" width="156" height="40" rx="2" ry="2" fill="#f2d6b3" stroke="#000000" stroke-width="2.5" pointer-events="all"/></g><g><g fill="#000000" font-family="&quot;Helvetica&quot;" text-anchor="middle" font-size="14px"><text x="332.5" y="49">Buildings and</text><text x="332.5" y="66">facade typologies</text></g></g></g><g data-cell-id="p1"><g><rect x="255" y="84" width="156" height="40" rx="2" ry="2" fill="#f2d6b3" stroke="#000000" stroke-width="2.5" pointer-events="all"/></g><g><g fill="#000000" font-family="&quot;Helvetica&quot;" text-anchor="middle" font-size="14px"><text x="332.5" y="101">Streets and</text><text x="332.5" y="118">lane graph</text></g></g></g><g data-cell-id="p2"><g><rect x="255" y="136" width="156" height="40" rx="2" ry="2" fill="#f2d6b3" stroke="#000000" stroke-width="2.5" pointer-events="all"/></g><g><g fill="#000000" font-family="&quot;Helvetica&quot;" text-anchor="middle" font-size="14px"><text x="332.5" y="153">Furniture</text><text x="332.5" y="170">placement</text></g></g></g></g><g data-cell-id="tiles"><g><rect x="469" y="32" width="110" height="144" rx="5.5" ry="5.5" fill="#f1f2c2" stroke="#000000" stroke-width="2.5" pointer-events="all"/></g><g><g fill="#000000" font-family="&quot;Helvetica&quot;" text-anchor="middle" font-size="14px"><text x="523.5" y="109.5">Binary tiles</text></g></g></g><g data-cell-id="e1"><g><path d="M 185 52 L 248.83 52" fill="none" stroke="#000000" stroke-width="2.5" stroke-miterlimit="10" pointer-events="stroke"/><path d="M 252.21 52 L 247.71 54.25 L 248.83 52 L 247.71 49.75 Z" fill="#000000" stroke="#000000" stroke-width="2.5" stroke-miterlimit="10" pointer-events="all"/></g></g><g data-cell-id="e2"><g><path d="M 185 104 L 248.83 104" fill="none" stroke="#000000" stroke-width="2.5" stroke-miterlimit="10" pointer-events="stroke"/><path d="M 252.21 104 L 247.71 106.25 L 248.83 104 L 247.71 101.75 Z" fill="#000000" stroke="#000000" stroke-width="2.5" stroke-miterlimit="10" pointer-events="all"/></g></g><g data-cell-id="e3"><g><path d="M 185 156 L 248.83 156" fill="none" stroke="#000000" stroke-width="2.5" stroke-miterlimit="10" pointer-events="stroke"/><path d="M 252.21 156 L 247.71 158.25 L 248.83 156 L 247.71 153.75 Z" fill="#000000" stroke="#000000" stroke-width="2.5" stroke-miterlimit="10" pointer-events="all"/></g></g><g data-cell-id="e4"><g><path d="M 411 52 L 462.83 52" fill="none" stroke="#000000" stroke-width="2.5" stroke-miterlimit="10" pointer-events="stroke"/><path d="M 466.2 52 L 461.7 54.25 L 462.83 52 L 461.7 49.75 Z" fill="#000000" stroke="#000000" stroke-width="2.5" stroke-miterlimit="10" pointer-events="all"/></g></g><g data-cell-id="e5"><g><path d="M 411 104 L 462.83 104" fill="none" stroke="#000000" stroke-width="2.5" stroke-miterlimit="10" pointer-events="stroke"/><path d="M 466.2 104 L 461.7 106.25 L 462.83 104 L 461.7 101.75 Z" fill="#000000" stroke="#000000" stroke-width="2.5" stroke-miterlimit="10" pointer-events="all"/></g></g><g data-cell-id="e6"><g><path d="M 411 156 L 462.83 156" fill="none" stroke="#000000" stroke-width="2.5" stroke-miterlimit="10" pointer-events="stroke"/><path d="M 466.2 156 L 461.7 158.25 L 462.83 156 L 461.7 153.75 Z" fill="#000000" stroke="#000000" stroke-width="2.5" stroke-miterlimit="10" pointer-events="all"/></g></g><g data-cell-id="srv"><g><rect x="17" y="264" width="776" height="220" rx="11" ry="11" fill="#f3f3f4" stroke="#000000" stroke-width="2.5" pointer-events="all"/></g><g><g fill="#000000" font-family="&quot;Helvetica&quot;" font-weight="bold" font-size="14px"><text x="28.5" y="472.5">Simulation server (Electron)</text></g></g><g data-cell-id="cli"><g><rect x="31" y="278" width="582" height="168" rx="8.4" ry="8.4" fill="#ffffff" stroke="#000000" stroke-width="2.5" pointer-events="all"/></g><g><g fill="#000000" font-family="&quot;Helvetica&quot;" font-weight="bold" font-size="14px"><text x="42.5" y="434.5">Client (three.js, WebGL2)</text></g></g><g data-cell-id="k1"><g><rect x="45" y="292" width="122" height="40" rx="2" ry="2" fill="#c2e9f2" stroke="#000000" stroke-width="2.5" pointer-events="all"/></g><g><g fill="#000000" font-family="&quot;Helvetica&quot;" text-anchor="middle" font-size="14px"><text x="105.5" y="317.5">Tile streaming</text></g></g></g><g data-cell-id="k2"><g><rect x="189" y="292" width="122" height="40" rx="2" ry="2" fill="#c2e9f2" stroke="#000000" stroke-width="2.5" pointer-events="all"/></g><g><g fill="#000000" font-family="&quot;Helvetica&quot;" text-anchor="middle" font-size="14px"><text x="249.5" y="317.5">Facade dressing</text></g></g></g><g data-cell-id="k3"><g><rect x="333" y="292" width="122" height="40" rx="2" ry="2" fill="#c2e9f2" stroke="#000000" stroke-width="2.5" pointer-events="all"/></g><g><g fill="#000000" font-family="&quot;Helvetica&quot;" text-anchor="middle" font-size="14px"><text x="393.5" y="317.5">Renderer</text></g></g></g><g data-cell-id="k4"><g><rect x="477" y="292" width="122" height="40" rx="2" ry="2" fill="#c2e9f2" stroke="#000000" stroke-width="2.5" pointer-events="all"/></g><g><g fill="#000000" font-family="&quot;Helvetica&quot;" text-anchor="middle" font-size="14px"><text x="537.5" y="317.5">Sensors</text></g></g></g><g data-cell-id="k5"><g><rect x="189" y="368" width="122" height="40" rx="2" ry="2" fill="#c2e9f2" stroke="#000000" stroke-width="2.5" pointer-events="all"/></g><g><g fill="#000000" font-family="&quot;Helvetica&quot;" text-anchor="middle" font-size="14px"><text x="249.5" y="385">Traffic and</text><text x="249.5" y="402">pedestrians</text></g></g></g><g data-cell-id="br"><g><rect x="477" y="368" width="122" height="40" rx="2" ry="2" fill="#dbdfef" stroke="#000000" stroke-width="2.5" pointer-events="all"/></g><g><g fill="#000000" font-family="&quot;Helvetica&quot;" text-anchor="middle" font-size="14px"><text x="537.5" y="393.5">API bridge</text></g></g></g></g><g data-cell-id="tcp"><g><rect x="667" y="368" width="112" height="40" rx="2" ry="2" fill="#dbdfef" stroke="#000000" stroke-width="2.5" pointer-events="all"/></g><g><g fill="#000000" font-family="&quot;Helvetica&quot;" text-anchor="middle" font-size="14px"><text x="722.5" y="393.5">TCP server</text></g></g></g></g><g data-cell-id="e7"><g><path d="M 524 176 L 524 232 Q 524 242 514 242 L 116 242 Q 106 242 106 252 L 106 285.83" fill="none" stroke="#000000" stroke-width="2.5" stroke-miterlimit="10" pointer-events="stroke"/><path d="M 106 289.2 L 103.75 284.7 L 106 285.83 L 108.25 284.7 Z" fill="#000000" stroke="#000000" stroke-width="2.5" stroke-miterlimit="10" pointer-events="all"/></g></g><g data-cell-id="e8"><g><path d="M 167 312 L 182.83 312" fill="none" stroke="#000000" stroke-width="2.5" stroke-miterlimit="10" pointer-events="stroke"/><path d="M 186.21 312 L 181.71 314.25 L 182.83 312 L 181.71 309.75 Z" fill="#000000" stroke="#000000" stroke-width="2.5" stroke-miterlimit="10" pointer-events="all"/></g></g><g data-cell-id="e9"><g><path d="M 311 312 L 326.83 312" fill="none" stroke="#000000" stroke-width="2.5" stroke-miterlimit="10" pointer-events="stroke"/><path d="M 330.2 312 L 325.7 314.25 L 326.83 312 L 325.7 309.75 Z" fill="#000000" stroke="#000000" stroke-width="2.5" stroke-miterlimit="10" pointer-events="all"/></g></g><g data-cell-id="e10"><g><path d="M 455 312 L 470.83 312" fill="none" stroke="#000000" stroke-width="2.5" stroke-miterlimit="10" pointer-events="stroke"/><path d="M 474.2 312 L 469.7 314.25 L 470.83 312 L 469.7 309.75 Z" fill="#000000" stroke="#000000" stroke-width="2.5" stroke-miterlimit="10" pointer-events="all"/></g></g><g data-cell-id="e11"><g><path d="M 106 332 L 106 378 Q 106 388 116 388 L 182.83 388" fill="none" stroke="#000000" stroke-width="2.5" stroke-miterlimit="10" pointer-events="stroke"/><path d="M 186.21 388 L 181.71 390.25 L 182.83 388 L 181.71 385.75 Z" fill="#000000" stroke="#000000" stroke-width="2.5" stroke-miterlimit="10" pointer-events="all"/></g></g><g data-cell-id="e12"><g><path d="M 311 378 L 384 378 Q 394 378 394 368 L 394 338.17" fill="none" stroke="#000000" stroke-width="2.5" stroke-miterlimit="10" pointer-events="stroke"/><path d="M 394 334.8 L 396.25 339.3 L 394 338.17 L 391.75 339.3 Z" fill="#000000" stroke="#000000" stroke-width="2.5" stroke-miterlimit="10" pointer-events="all"/></g></g><g data-cell-id="e13"><g><path d="M 477 398 L 317.17 398" fill="none" stroke="#000000" stroke-width="2.5" stroke-miterlimit="10" pointer-events="stroke"/><path d="M 313.8 398 L 318.3 395.75 L 317.17 398 L 318.3 400.25 Z" fill="#000000" stroke="#000000" stroke-width="2.5" stroke-miterlimit="10" pointer-events="all"/></g></g><g data-cell-id="e14"><g><path d="M 538 332 L 538 361.83" fill="none" stroke="#000000" stroke-width="2.5" stroke-miterlimit="10" pointer-events="stroke"/><path d="M 538 365.2 L 535.75 360.7 L 538 361.83 L 540.25 360.7 Z" fill="#000000" stroke="#000000" stroke-width="2.5" stroke-miterlimit="10" pointer-events="all"/></g></g><g data-cell-id="e15"><g><path d="M 605.17 388 L 660.83 388" fill="none" stroke="#000000" stroke-width="2.5" stroke-miterlimit="10" pointer-events="stroke"/><path d="M 601.79 388 L 606.29 385.75 L 605.17 388 L 606.29 390.25 Z" fill="#000000" stroke="#000000" stroke-width="2.5" stroke-miterlimit="10" pointer-events="all"/><path d="M 664.21 388 L 659.71 390.25 L 660.83 388 L 659.71 385.75 Z" fill="#000000" stroke="#000000" stroke-width="2.5" stroke-miterlimit="10" pointer-events="all"/></g></g><g data-cell-id="py"><g><rect x="667" y="84" width="112" height="40" rx="2" ry="2" fill="#cce7cf" stroke="#000000" stroke-width="2.5" pointer-events="all"/></g><g><g fill="#000000" font-family="&quot;Helvetica&quot;" text-anchor="middle" font-size="14px"><text x="722.5" y="109.5">Python API</text></g></g></g><g data-cell-id="e16"><g><path d="M 723 361.83 L 723 130.17" fill="none" stroke="#000000" stroke-width="2.5" stroke-miterlimit="10" pointer-events="stroke"/><path d="M 723 365.2 L 720.75 360.7 L 723 361.83 L 725.25 360.7 Z" fill="#000000" stroke="#000000" stroke-width="2.5" stroke-miterlimit="10" pointer-events="all"/><path d="M 723 126.8 L 725.25 131.3 L 723 130.17 L 720.75 131.3 Z" fill="#000000" stroke="#000000" stroke-width="2.5" stroke-miterlimit="10" pointer-events="all"/></g></g><g data-cell-id="o0"><g><rect x="823" y="16" width="160" height="24" fill="none" stroke="none" pointer-events="all"/></g><g><g fill="#000000" font-family="&quot;Helvetica&quot;" font-size="14px"><text x="830.5" y="33.5">RGB</text></g></g></g><g data-cell-id="e17"><g><path d="M 779 104 L 795 104 Q 805 104 805 94 L 805 38 Q 805 28 810.91 28 L 816.83 28" fill="none" stroke="#000000" stroke-width="2.5" stroke-miterlimit="10" pointer-events="stroke"/><path d="M 820.21 28 L 815.71 30.25 L 816.83 28 L 815.71 25.75 Z" fill="#000000" stroke="#000000" stroke-width="2.5" stroke-miterlimit="10" pointer-events="all"/></g></g><g data-cell-id="o1"><g><rect x="823" y="54" width="160" height="24" fill="none" stroke="none" pointer-events="all"/></g><g><g fill="#000000" font-family="&quot;Helvetica&quot;" font-size="14px"><text x="830.5" y="71.5">Semantic segmentation</text></g></g></g><g data-cell-id="e18"><g><path d="M 779 104 L 795 104 Q 805 104 805 94 L 805 76 Q 805 66 810.91 66 L 816.83 66" fill="none" stroke="#000000" stroke-width="2.5" stroke-miterlimit="10" pointer-events="stroke"/><path d="M 820.21 66 L 815.71 68.25 L 816.83 66 L 815.71 63.75 Z" fill="#000000" stroke="#000000" stroke-width="2.5" stroke-miterlimit="10" pointer-events="all"/></g></g><g data-cell-id="o2"><g><rect x="823" y="92" width="160" height="24" fill="none" stroke="none" pointer-events="all"/></g><g><g fill="#000000" font-family="&quot;Helvetica&quot;" font-size="14px"><text x="830.5" y="109.5">Instance segmentation</text></g></g></g><g data-cell-id="e19"><g><path d="M 779 104 L 816.83 104" fill="none" stroke="#000000" stroke-width="2.5" stroke-miterlimit="10" pointer-events="stroke"/><path d="M 820.21 104 L 815.71 106.25 L 816.83 104 L 815.71 101.75 Z" fill="#000000" stroke="#000000" stroke-width="2.5" stroke-miterlimit="10" pointer-events="all"/></g></g><g data-cell-id="o3"><g><rect x="823" y="130" width="160" height="24" fill="none" stroke="none" pointer-events="all"/></g><g><g fill="#000000" font-family="&quot;Helvetica&quot;" font-size="14px"><text x="830.5" y="147.5">Metric depth</text></g></g></g><g data-cell-id="e20"><g><path d="M 779 104 L 795 104 Q 805 104 805 114 L 805 132 Q 805 142 810.91 142 L 816.83 142" fill="none" stroke="#000000" stroke-width="2.5" stroke-miterlimit="10" pointer-events="stroke"/><path d="M 820.21 142 L 815.71 144.25 L 816.83 142 L 815.71 139.75 Z" fill="#000000" stroke="#000000" stroke-width="2.5" stroke-miterlimit="10" pointer-events="all"/></g></g><g data-cell-id="o4"><g><rect x="823" y="168" width="160" height="24" fill="none" stroke="none" pointer-events="all"/></g><g><g fill="#000000" font-family="&quot;Helvetica&quot;" font-size="14px"><text x="830.5" y="185.5">2D and 3D boxes</text></g></g></g><g data-cell-id="e21"><g><path d="M 779 104 L 795 104 Q 805 104 805 114 L 805 170 Q 805 180 810.91 180 L 816.83 180" fill="none" stroke="#000000" stroke-width="2.5" stroke-miterlimit="10" pointer-events="stroke"/><path d="M 820.21 180 L 815.71 182.25 L 816.83 180 L 815.71 177.75 Z" fill="#000000" stroke="#000000" stroke-width="2.5" stroke-miterlimit="10" pointer-events="all"/></g></g></g></g></g></svg>
